<?xml version="1.0" encoding="iso-8859-1"?>
<!-- Uploaded to: SVG Repo, www.svgrepo.com, Generator: SVG Repo Mixer Tools -->
<svg height="800px" width="800px" version="1.1" id="Capa_1" xmlns="http://www.w3.org/2000/svg" xmlns:xlink="http://www.w3.org/1999/xlink" 
	 viewBox="0 0 58 58" xml:space="preserve">
<circle style="fill:#D75A4A;" cx="29" cy="29" r="29"/>
<path style="fill:#FFFFFF;" d="M22.427,20h-8.323C12.942,20,12,20.942,12,22.104v12.793C12,36.058,12.942,37,14.104,37h8.323
	c0.375,0,0.743,0.1,1.067,0.29L36.83,49.706C38.232,50.531,40,49.52,40,47.893V9.107c0-1.627-1.768-2.638-3.17-1.813L23.494,19.71
	C23.17,19.9,22.802,20,22.427,20z"/>
<path style="fill:#424A60;" d="M50.866,9.962c-0.436-0.5-0.884-0.992-1.36-1.468s-0.968-0.924-1.468-1.36L7.134,48.038
	c0.436,0.5,0.884,0.992,1.36,1.468s0.968,0.924,1.468,1.36L50.866,9.962z"/>
</svg>